<?xml version="1.0" standalone="no"?>
<!DOCTYPE svg PUBLIC "-//W3C//DTD SVG 20010904//EN"
 "http://www.w3.org/TR/2001/REC-SVG-20010904/DTD/svg10.dtd">
<svg version="1.0" xmlns="http://www.w3.org/2000/svg"
 width="602.000000pt" height="370.000000pt" viewBox="0 0 602.000000 370.000000"
 preserveAspectRatio="xMidYMid meet">

<g transform="translate(0.000000,370.000000) scale(0.100000,-0.100000)"
fill="#000000" stroke="none">
<path d="M938 3445 c-227 -37 -420 -140 -540 -290 l-48 -59 0 -290 0 -289 28
39 c154 210 422 327 752 327 314 -1 579 -99 782 -292 l88 -83 0 286 0 285 -69
69 c-146 144 -332 240 -556 287 -109 23 -327 28 -437 10z"/>
<path d="M4750 3444 c-297 -31 -529 -148 -694 -352 l-56 -69 0 -1023 0 -1022
45 55 c138 170 345 291 570 334 58 11 119 14 225 10 158 -5 253 -26 387 -87
136 -62 307 -196 401 -315 l32 -40 0 1042 0 1042 -50 58 c-152 174 -371 303
-590 346 -81 16 -214 26 -270 21z"/>
<path d="M2160 1763 l0 -1009 38 -62 c121 -201 303 -339 533 -406 361 -104
728 -13 972 243 132 139 127 122 127 391 l0 231 -59 -74 c-90 -113 -226 -207
-368 -256 -227 -77 -495 -66 -745 31 l-78 29 0 105 c0 57 2 104 6 104 3 0 51
-15 107 -34 142 -47 230 -61 387 -60 103 1 156 6 223 22 204 50 378 166 495
331 l32 45 -1 265 c0 253 -1 265 -17 241 -151 -218 -368 -344 -640 -369 -165
-15 -363 14 -520 77 l-67 27 -3 84 c-3 77 -1 83 15 77 141 -55 253 -76 404
-76 330 0 613 142 788 394 l41 59 0 280 0 279 -47 -63 c-167 -228 -420 -360
-719 -376 -350 -19 -679 139 -856 411 -21 33 -41 62 -43 65 -3 2 -5 -450 -5
-1006z"/>
<path d="M1030 2688 c-205 -14 -386 -80 -525 -191 -66 -53 -143 -141 -151
-172 -2 -11 -3 -142 -2 -292 l3 -272 45 57 c217 272 685 376 1102 246 160 -50
306 -136 429 -251 l69 -65 0 283 0 284 -79 76 c-221 215 -542 322 -891 297z"/>
<path d="M938 1915 c-227 -37 -420 -140 -540 -290 l-48 -59 0 -290 0 -289 28
39 c154 210 422 327 752 327 215 0 374 -38 554 -129 101 -52 151 -87 239 -173
l77 -74 0 284 0 285 -53 55 c-145 151 -340 255 -573 304 -108 23 -326 28 -436
10z"/>
</g>
</svg>
