<?xml version="1.0" standalone="no"?>
<!DOCTYPE svg PUBLIC "-//W3C//DTD SVG 20010904//EN"
 "http://www.w3.org/TR/2001/REC-SVG-20010904/DTD/svg10.dtd">
<svg version="1.0" xmlns="http://www.w3.org/2000/svg"
 width="1200.000000pt" height="500.000000pt" viewBox="0 0 1200.000000 500.000000"
 preserveAspectRatio="xMidYMid meet">
<g transform="translate(0.000000,500.000000) scale(0.100000,-0.100000)"
fill="#000000" stroke="none">
<path d="M1350 4099 c-79 -14 -217 -57 -275 -86 -114 -58 -220 -145 -284 -233
l-31 -43 0 -299 c0 -187 4 -298 10 -298 5 0 16 12 24 28 24 46 95 120 160 166
165 118 363 176 595 176 312 0 592 -106 793 -301 39 -38 75 -69 79 -69 5 0 9
132 9 294 l0 293 -77 74 c-141 135 -303 224 -500 276 -84 22 -124 26 -273 29
-96 1 -200 -1 -230 -7z"/>
<path d="M5063 4085 c-140 -25 -281 -82 -392 -158 -60 -40 -193 -169 -237
-228 l-34 -47 0 -1031 c0 -617 4 -1031 9 -1031 5 0 26 22 46 49 19 28 69 80
109 118 413 384 1100 318 1466 -141 25 -31 48 -56 52 -56 5 0 8 474 8 1053 l0
1054 -75 80 c-131 141 -269 233 -439 292 -167 59 -352 75 -513 46z"/>
<path d="M2570 2407 l0 -1022 38 -64 c52 -90 180 -222 276 -285 100 -67 174
-100 291 -132 79 -21 111 -24 264 -24 179 0 232 8 351 51 167 61 334 192 439
343 l41 59 0 239 c0 254 -4 274 -45 206 -25 -44 -129 -152 -185 -193 -49 -35
-157 -95 -172 -95 -6 0 -24 -6 -41 -14 -175 -76 -481 -70 -712 13 -33 12 -68
25 -77 28 -14 4 -17 22 -20 102 l-3 96 79 -27 c153 -55 207 -63 401 -62 166 0
187 3 268 27 200 61 358 174 468 333 l28 42 3 276 c3 257 2 276 -14 276 -10 0
-18 -5 -18 -11 0 -45 -158 -205 -265 -268 -159 -93 -246 -115 -465 -116 -180
0 -221 6 -370 55 -112 36 -110 34 -110 111 l0 68 54 -19 c125 -43 207 -55 356
-54 121 1 161 5 240 26 227 61 401 178 540 363 l60 80 0 293 c0 160 -4 292 -9
292 -4 0 -25 -26 -46 -57 -53 -81 -188 -210 -271 -259 -167 -99 -319 -139
-519 -137 -195 1 -342 40 -500 131 -135 78 -264 211 -316 325 -7 15 -18 27
-26 27 -11 0 -13 -175 -13 -1023z"/>
<path d="M1400 3340 c-249 -32 -453 -136 -591 -303 l-49 -58 1 -307 0 -307 22
30 c12 17 58 66 102 111 133 132 311 208 547 234 326 37 682 -79 904 -292 45
-43 84 -78 88 -78 3 0 6 132 6 293 l0 294 -60 62 c-148 151 -334 251 -560 302
-98 22 -313 32 -410 19z"/>
<path d="M6860 2513 c-90 -263 -166 -484 -168 -490 -3 -10 23 -13 111 -13
l115 0 37 110 37 110 168 0 168 0 37 -110 37 -110 115 0 c88 0 114 3 111 13
-3 6 -79 227 -169 490 l-164 477 -135 0 -136 0 -164 -477z m355 71 c28 -86 51
-162 53 -170 3 -11 -17 -14 -108 -14 -90 0 -111 3 -108 14 10 43 104 326 108
326 3 0 28 -70 55 -156z"/>
<path d="M11040 2815 l0 -176 -32 36 c-46 53 -96 75 -171 75 -74 0 -117 -13
-169 -49 -86 -61 -132 -177 -131 -331 2 -229 114 -370 293 -370 79 0 133 23
178 74 l32 37 0 -51 0 -50 105 0 105 0 0 490 0 490 -105 0 -105 0 0 -175z
m-72 -255 c52 -32 75 -94 70 -194 -6 -133 -53 -196 -145 -196 -82 0 -143 89
-143 209 0 71 19 122 60 163 32 32 44 38 81 38 27 0 57 -8 77 -20z"/>
<path d="M7893 2731 c-89 -30 -150 -89 -195 -187 -20 -42 -23 -65 -23 -169 0
-111 2 -125 29 -182 60 -130 167 -193 326 -193 103 0 173 21 232 70 40 33 83
112 94 173 l6 37 -98 0 -99 0 -20 -37 c-28 -51 -65 -76 -115 -76 -103 0 -170
133 -140 278 32 152 197 194 255 65 l18 -40 100 0 99 0 -6 38 c-19 106 -98
197 -198 227 -70 21 -200 19 -265 -4z"/>
<path d="M8672 2731 c-66 -23 -117 -63 -159 -125 -47 -68 -58 -116 -58 -241 0
-99 3 -116 29 -172 37 -80 103 -143 182 -172 51 -20 74 -22 164 -19 112 4 153
18 218 73 35 29 78 111 88 168 l6 37 -98 0 -99 0 -20 -37 c-28 -51 -65 -76
-115 -76 -54 0 -88 26 -120 89 -35 69 -34 181 1 244 33 60 70 85 123 84 54 -1
89 -24 111 -74 l18 -40 99 0 100 0 -7 43 c-16 100 -98 192 -197 222 -71 21
-200 19 -266 -4z"/>
<path d="M9539 2727 c-18 -12 -44 -40 -56 -62 l-23 -40 0 58 0 57 -100 0 -100
0 0 -365 0 -365 105 0 105 0 0 223 c0 192 2 227 18 256 30 59 63 76 148 75
l74 0 0 93 0 93 -69 0 c-54 0 -75 -5 -102 -23z"/>
<path d="M9954 2730 c-74 -29 -138 -89 -175 -166 -28 -56 -33 -78 -37 -162 -9
-184 49 -300 183 -370 43 -22 66 -27 160 -30 95 -3 118 -1 169 18 89 34 154
101 180 186 6 20 2 21 -90 27 l-97 7 -32 -37 c-29 -34 -36 -37 -96 -40 -51 -3
-70 0 -96 16 -40 25 -62 59 -70 105 l-6 36 248 0 248 0 -5 88 c-10 155 -66
255 -176 309 -49 24 -71 28 -157 30 -81 3 -110 -1 -151 -17z m221 -160 c32
-20 65 -72 65 -104 0 -14 -19 -16 -145 -16 -162 0 -165 2 -125 68 42 69 138
93 205 52z"/>
<path d="M1315 2560 c-221 -45 -383 -139 -507 -293 l-48 -58 0 -307 c1 -292 2
-306 18 -284 104 140 170 196 308 263 234 113 558 130 836 43 165 -52 319
-143 430 -256 37 -37 70 -68 73 -68 3 0 5 134 5 297 l0 297 -73 72 c-155 153
-357 254 -596 298 -115 22 -329 20 -446 -4z"/>
</g>
</svg>
