<?xml version="1.0" standalone="no"?>
<!DOCTYPE svg PUBLIC "-//W3C//DTD SVG 20010904//EN"
 "http://www.w3.org/TR/2001/REC-SVG-20010904/DTD/svg10.dtd">
<svg version="1.0" xmlns="http://www.w3.org/2000/svg"
 width="1000.000000pt" height="1000.000000pt" viewBox="0 0 1000.000000 1000.000000"
 preserveAspectRatio="xMidYMid meet">
<g transform="translate(0.000000,1000.000000) scale(0.100000,-0.100000)"
fill="#000000" stroke="none">
<path d="M2270 7974 c-69 -9 -127 -19 -130 -23 -3 -4 -32 -13 -65 -20 -33 -7
-64 -17 -70 -21 -5 -4 -27 -13 -48 -20 -42 -13 -189 -88 -197 -100 -3 -4 -18
-14 -35 -23 -16 -9 -48 -32 -70 -52 -22 -19 -44 -39 -50 -44 -5 -4 -32 -34
-60 -65 -91 -104 -85 -69 -85 -518 0 -219 3 -398 8 -398 4 0 21 23 37 52 29
49 133 162 188 203 15 11 36 28 48 37 12 10 30 20 40 23 11 4 19 10 19 15 0 5
18 15 40 21 22 7 40 16 40 20 0 4 16 13 36 19 20 7 48 18 62 26 15 8 44 17 65
20 20 4 40 10 42 14 3 5 38 14 78 20 39 7 83 17 96 23 32 16 482 17 502 1 8
-6 53 -17 102 -23 48 -7 87 -17 87 -21 0 -4 19 -10 41 -14 23 -4 60 -15 83
-26 23 -10 54 -22 69 -25 15 -4 27 -10 27 -15 0 -4 18 -12 40 -19 22 -6 40
-16 40 -20 0 -5 10 -11 23 -15 23 -6 141 -79 170 -106 9 -8 29 -24 43 -35 39
-29 164 -156 164 -166 0 -5 5 -9 10 -9 6 0 10 139 10 398 l0 398 -94 91 c-52
50 -107 99 -122 109 -16 10 -31 21 -34 24 -3 3 -27 20 -55 38 -27 17 -55 35
-61 40 -5 5 -27 15 -47 21 -20 7 -37 16 -37 20 0 5 -20 14 -45 21 -25 7 -45
16 -45 20 0 4 -25 13 -55 20 -30 7 -55 16 -55 20 0 4 -30 13 -67 20 -38 7 -70
16 -73 20 -9 13 -182 31 -335 35 -100 3 -192 -1 -275 -11z"/>
<path d="M7203 7963 c-29 -2 -53 -7 -53 -12 0 -4 -36 -13 -80 -20 -44 -8 -80
-17 -80 -21 0 -4 -19 -13 -42 -18 -24 -6 -61 -20 -83 -32 -21 -11 -45 -20 -52
-20 -7 0 -13 -4 -13 -9 0 -5 -11 -12 -24 -15 -14 -3 -31 -12 -38 -19 -7 -6
-26 -19 -43 -27 -16 -8 -35 -19 -41 -25 -6 -5 -23 -19 -39 -30 -104 -75 -285
-261 -285 -294 0 -6 -7 -14 -15 -17 -13 -5 -15 -168 -15 -1381 0 -1250 1
-1375 16 -1369 9 3 18 6 20 6 2 0 4 5 4 12 0 6 7 18 15 27 8 9 38 43 67 75 66
74 73 81 134 134 69 60 70 61 99 74 14 6 25 14 25 18 0 4 15 13 33 21 17 7 34
16 37 20 8 12 136 69 153 69 10 0 17 4 17 9 0 5 26 15 58 22 31 7 62 16 67 20
6 4 51 13 100 19 50 6 109 15 133 21 54 12 167 12 206 0 17 -5 73 -14 124 -20
52 -5 99 -14 105 -19 7 -5 38 -14 69 -21 32 -7 60 -17 63 -22 4 -5 14 -9 25
-9 36 0 284 -139 347 -194 7 -6 24 -20 39 -31 44 -34 167 -157 204 -205 19
-25 44 -53 55 -63 l20 -19 3 1397 2 1397 -32 41 c-28 35 -177 185 -228 229 -8
7 -51 37 -95 65 -44 29 -85 57 -91 62 -6 4 -27 14 -47 22 -20 7 -37 17 -37 21
0 4 -5 8 -12 8 -6 0 -34 11 -62 24 -28 13 -68 27 -88 31 -21 4 -38 11 -38 15
0 4 -35 13 -77 20 -43 7 -81 18 -84 23 -7 10 -351 18 -446 10z"/>
<path d="M3870 5721 c0 -1204 2 -1371 15 -1385 8 -8 15 -18 15 -23 0 -4 24
-43 54 -86 72 -105 179 -217 271 -282 16 -11 33 -24 39 -30 16 -14 64 -42 106
-63 19 -9 37 -20 40 -23 3 -3 22 -12 42 -18 21 -7 40 -16 43 -21 3 -4 27 -13
55 -20 27 -7 50 -16 50 -20 0 -4 36 -13 80 -21 44 -7 80 -16 80 -21 0 -4 117
-8 260 -8 143 0 260 4 260 9 0 4 34 14 75 21 41 7 75 16 75 20 0 4 25 13 55
20 30 7 55 16 55 20 0 4 18 13 40 20 22 7 40 16 40 21 0 4 10 9 23 13 12 3 31
12 42 21 11 8 42 30 70 48 59 38 59 38 150 125 74 70 195 219 195 240 0 7 5
12 10 12 6 0 10 115 10 325 0 291 -2 325 -16 325 -9 0 -18 -9 -21 -20 -3 -11
-9 -20 -14 -20 -5 0 -14 -11 -19 -25 -5 -14 -14 -25 -19 -25 -5 0 -13 -9 -16
-21 -7 -20 -151 -169 -165 -169 -4 0 -19 -10 -33 -22 -46 -41 -72 -59 -94 -64
-13 -4 -23 -10 -23 -15 0 -4 -18 -14 -40 -20 -22 -7 -40 -15 -40 -19 0 -4 -19
-12 -42 -19 -24 -7 -56 -18 -73 -26 -16 -7 -52 -16 -80 -20 -27 -4 -56 -13
-64 -19 -20 -16 -489 -15 -522 1 -13 6 -57 16 -96 23 -40 6 -75 15 -78 20 -3
4 -22 11 -42 15 -21 4 -56 15 -78 25 -23 10 -52 21 -65 25 l-25 6 0 133 0 133
35 -18 c19 -11 42 -19 50 -19 8 0 28 -7 43 -15 15 -8 56 -20 90 -26 34 -7 64
-15 67 -19 10 -14 206 -32 345 -32 142 0 335 18 335 32 0 4 29 13 65 20 36 7
65 16 65 20 0 4 20 13 45 20 25 7 45 16 45 20 0 4 18 13 40 20 22 7 40 16 40
20 0 4 11 12 25 18 14 7 31 16 38 22 178 143 217 184 300 312 l37 56 0 356 c0
304 -2 356 -14 356 -16 0 -66 -59 -66 -77 0 -6 -7 -13 -15 -17 -8 -3 -15 -11
-15 -18 0 -8 -8 -21 -17 -29 -10 -9 -36 -36 -59 -61 -38 -42 -125 -117 -170
-145 -10 -7 -36 -24 -57 -38 -21 -13 -49 -28 -62 -31 -14 -3 -25 -10 -25 -14
0 -4 -12 -11 -27 -15 -15 -3 -45 -15 -68 -25 -22 -10 -60 -21 -85 -25 -25 -4
-50 -11 -55 -15 -15 -12 -190 -30 -289 -30 -99 0 -287 19 -301 30 -5 4 -33 11
-61 15 -28 3 -63 12 -76 19 -14 8 -48 19 -77 26 -28 6 -51 16 -51 21 0 5 -8 9
-17 9 -10 1 -27 6 -38 13 -18 11 -20 23 -20 105 l0 93 25 -6 c14 -4 27 -10 30
-14 3 -5 30 -14 60 -21 30 -7 57 -16 60 -21 3 -4 54 -14 113 -21 59 -7 107
-16 107 -20 0 -4 65 -8 145 -8 80 0 145 4 145 8 0 4 46 13 102 20 56 6 104 16
107 20 3 5 34 15 69 22 34 7 62 16 62 20 0 4 20 13 45 20 25 7 45 16 45 21 0
4 18 14 40 20 22 7 40 15 40 19 0 4 14 13 30 20 17 7 30 16 30 21 0 4 8 10 19
14 10 3 28 13 38 23 11 9 35 28 54 42 74 56 189 181 247 269 20 31 40 58 44
59 5 2 8 179 8 393 0 349 -2 389 -16 389 -9 0 -18 -9 -21 -20 -3 -11 -9 -20
-14 -20 -5 0 -14 -11 -19 -25 -5 -14 -13 -25 -17 -25 -5 0 -14 -14 -21 -30
-13 -28 -147 -171 -200 -213 -85 -66 -240 -157 -269 -157 -7 0 -13 -4 -13 -9
0 -4 -21 -14 -47 -21 -27 -7 -52 -16 -58 -20 -5 -4 -37 -13 -70 -20 -33 -7
-69 -16 -80 -20 -11 -5 -41 -11 -67 -15 -71 -9 -346 -6 -403 4 -123 24 -198
41 -209 49 -6 5 -31 14 -56 21 -25 7 -49 17 -55 21 -5 4 -27 13 -47 19 -21 7
-38 16 -38 21 0 4 -10 10 -22 13 -20 5 -135 77 -175 110 -118 96 -258 268
-294 360 -6 15 -17 27 -25 27 -12 0 -14 -201 -14 -1369z"/>
<path d="M2260 6957 c-47 -5 -87 -13 -90 -17 -3 -4 -33 -12 -67 -19 -34 -6
-75 -18 -90 -26 -15 -8 -43 -18 -60 -21 -18 -3 -33 -10 -33 -14 0 -4 -18 -13
-40 -20 -22 -7 -40 -17 -40 -21 0 -4 -16 -13 -35 -19 -19 -6 -35 -15 -35 -20
0 -4 -13 -13 -30 -20 -16 -7 -30 -15 -30 -19 0 -4 -13 -14 -28 -23 -31 -18
-162 -147 -162 -159 0 -4 -6 -14 -13 -21 -48 -50 -47 -42 -47 -463 0 -217 4
-395 8 -395 4 0 19 19 32 42 29 50 201 224 230 233 11 3 20 10 20 14 0 5 14
14 30 21 17 7 30 16 30 20 0 4 18 13 40 20 22 7 40 16 40 20 0 4 20 13 45 20
25 7 45 16 45 20 0 4 26 13 58 20 31 7 62 16 68 21 6 5 49 14 95 20 46 6 92
15 103 21 24 12 388 13 413 0 10 -6 58 -15 108 -22 49 -6 94 -15 100 -19 5 -5
28 -12 50 -16 22 -4 59 -15 82 -26 23 -10 48 -19 55 -19 8 0 22 -6 33 -14 11
-7 37 -19 58 -25 20 -7 37 -16 37 -20 0 -4 16 -13 35 -20 19 -7 35 -16 35 -21
0 -4 10 -10 23 -14 22 -5 48 -23 94 -63 14 -13 30 -23 35 -23 5 0 51 -43 103
-95 52 -52 96 -95 99 -95 4 0 6 177 6 393 l0 392 -64 65 c-90 91 -136 132
-192 168 -27 17 -54 36 -61 41 -6 6 -40 25 -75 43 -35 18 -64 36 -66 41 -2 4
-10 7 -18 7 -7 0 -37 11 -66 24 -29 13 -70 27 -90 31 -21 4 -38 11 -38 15 0 4
-34 13 -75 20 -41 7 -75 16 -75 20 0 25 -419 37 -590 17z"/>
<path d="M2325 5948 c-65 -5 -122 -13 -125 -17 -3 -5 -38 -14 -77 -21 -40 -6
-75 -15 -78 -20 -3 -4 -27 -13 -55 -20 -27 -7 -50 -15 -50 -20 0 -4 -20 -13
-45 -20 -25 -7 -45 -16 -45 -21 0 -4 -16 -13 -35 -19 -19 -6 -35 -15 -35 -20
0 -5 -8 -11 -19 -15 -10 -3 -28 -13 -40 -23 -12 -9 -35 -28 -53 -42 -60 -48
-135 -125 -171 -179 l-37 -53 0 -399 c0 -350 2 -398 15 -393 8 4 15 11 15 17
0 31 139 184 215 237 20 14 42 31 50 38 24 21 206 112 225 112 11 0 21 4 25 9
3 5 31 15 63 22 31 7 59 16 62 21 3 4 51 12 105 18 55 6 114 16 131 21 17 5
82 9 144 9 62 0 127 -4 144 -9 17 -5 76 -14 130 -20 55 -6 104 -15 110 -20 6
-5 31 -12 56 -16 25 -4 59 -13 75 -20 17 -8 49 -19 73 -26 23 -7 42 -16 42
-21 0 -4 5 -8 12 -8 13 0 141 -59 148 -69 3 -3 18 -12 33 -19 29 -13 35 -17
81 -57 16 -14 32 -25 35 -25 17 -1 181 -160 181 -176 0 -10 21 -24 36 -24 2 0
4 178 4 395 l0 395 -92 90 c-116 112 -123 118 -153 132 -14 6 -25 14 -25 18 0
4 -13 13 -30 20 -16 7 -30 16 -30 20 0 5 -16 14 -35 20 -19 6 -35 15 -35 19 0
4 -18 14 -40 21 -22 7 -40 16 -40 20 0 4 -20 13 -45 20 -25 7 -45 16 -45 20 0
4 -27 13 -60 20 -33 7 -60 16 -60 20 0 4 -35 13 -77 20 -43 6 -83 16 -88 20
-11 9 -263 31 -330 29 -22 -1 -94 -6 -160 -11z"/>
<path d="M2890 2273 c-90 -263 -166 -484 -168 -490 -3 -10 23 -13 111 -13
l115 0 37 110 37 110 168 0 168 0 37 -110 37 -110 115 0 c88 0 114 3 111 13
-3 6 -79 227 -169 490 l-164 477 -135 0 -136 0 -164 -477z m355 71 c28 -86 51
-162 53 -170 3 -11 -17 -14 -108 -14 -90 0 -111 3 -108 14 10 43 104 326 108
326 3 0 28 -70 55 -156z"/>
<path d="M7070 2575 l0 -176 -32 36 c-46 53 -96 75 -171 75 -74 0 -117 -13
-169 -49 -86 -61 -132 -177 -131 -331 2 -229 114 -370 293 -370 79 0 133 23
178 74 l32 37 0 -51 0 -50 105 0 105 0 0 490 0 490 -105 0 -105 0 0 -175z
m-72 -255 c52 -32 75 -94 70 -194 -6 -133 -53 -196 -145 -196 -82 0 -143 89
-143 209 0 71 19 122 60 163 32 32 44 38 81 38 27 0 57 -8 77 -20z"/>
<path d="M3923 2491 c-89 -30 -150 -89 -195 -187 -20 -42 -23 -65 -23 -169 0
-111 2 -125 29 -182 60 -130 167 -193 326 -193 103 0 173 21 232 70 40 33 83
112 94 173 l6 37 -98 0 -99 0 -20 -37 c-28 -51 -65 -76 -115 -76 -103 0 -170
133 -140 278 32 152 197 194 255 65 l18 -40 100 0 99 0 -6 38 c-19 106 -98
197 -198 227 -70 21 -200 19 -265 -4z"/>
<path d="M4702 2491 c-66 -23 -117 -63 -159 -125 -47 -68 -58 -116 -58 -241 0
-99 3 -116 29 -172 37 -80 103 -143 182 -172 51 -20 74 -22 164 -19 112 4 153
18 218 73 35 29 78 111 88 168 l6 37 -98 0 -99 0 -20 -37 c-28 -51 -65 -76
-115 -76 -54 0 -88 26 -120 89 -35 69 -34 181 1 244 33 60 70 85 123 84 54 -1
89 -24 111 -74 l18 -40 99 0 100 0 -7 43 c-16 100 -98 192 -197 222 -71 21
-200 19 -266 -4z"/>
<path d="M5569 2487 c-18 -12 -44 -40 -56 -62 l-23 -40 0 58 0 57 -100 0 -100
0 0 -365 0 -365 105 0 105 0 0 223 c0 192 2 227 18 256 30 59 63 76 148 75
l74 0 0 93 0 93 -69 0 c-54 0 -75 -5 -102 -23z"/>
<path d="M5984 2490 c-74 -29 -138 -89 -175 -166 -28 -56 -33 -78 -37 -162 -9
-184 49 -300 183 -370 43 -22 66 -27 160 -30 95 -3 118 -1 169 18 89 34 154
101 180 186 6 20 2 21 -90 27 l-97 7 -32 -37 c-29 -34 -36 -37 -96 -40 -51 -3
-70 0 -96 16 -40 25 -62 59 -70 105 l-6 36 248 0 248 0 -5 88 c-10 155 -66
255 -176 309 -49 24 -71 28 -157 30 -81 3 -110 -1 -151 -17z m221 -160 c32
-20 65 -72 65 -104 0 -14 -19 -16 -145 -16 -162 0 -165 2 -125 68 42 69 138
93 205 52z"/>
</g>
</svg>
